PathFileType	4	(X/Y/Z)	\\147.46.242.158\로컬 디스크 (e)\MOCAP Data\Iguana Capture\iguana\Project 2\Capture day 7\Session 2\Take08.trc
DataRate	CameraRate	NumFrames	NumMarkers	Units	OrigDataRate	OrigDataStartFrame	OrigNumFrames
120.0	120.0	8	23	mm	120.0	130	29130
Frame#	Time	ana:head1			ana:head2			ana:bone1			ana:bone2			ana:bone3			ana:tail1			ana:tail2			ana:tail3			ana:tail4			ana:Rforefoot1			ana:Rforefoot2			ana:Rforefoot3			ana:Lforefoot1			ana:Lforefoot2			ana:Lforefoot3			ana:RhindLeg1			ana:RhindLeg2			ana:RhindLeg3			ana:RhindLeg4			ana:LhindLeg1			ana:LhindLeg2			ana:LhindLeg3			ana:LhindLeg4			
		X1	Y1	Z1	X2	Y2	Z2	X3	Y3	Z3	X4	Y4	Z4	X5	Y5	Z5	X6	Y6	Z6	X7	Y7	Z7	X8	Y8	Z8	X9	Y9	Z9	X10	Y10	Z10	X11	Y11	Z11	X12	Y12	Z12	X13	Y13	Z13	X14	Y14	Z14	X15	Y15	Z15	X16	Y16	Z16	X17	Y17	Z17	X18	Y18	Z18	X19	Y19	Z19	X20	Y20	Z20	X21	Y21	Z21	X22	Y22	Z22	X23	Y23	Z23	

1631	13.583	360.47742	384.23880	47.76823	367.86404	391.91156	48.63715	384.32251	406.81329	41.35638	404.84702	426.23877	39.83987	430.19315	447.33099	33.80157	451.15314	473.50110	26.47372	476.99490	497.46252	15.32100	513.04913	521.87720	5.41215	548.25903	540.29169	3.67327	376.07596	414.69867	23.68343	381.32977	429.08420	21.52450	386.94418	435.07742	1.49005	391.21561	394.09952	25.56533	400.62277	386.86160	18.16501	393.30905	383.47855	2.43814	423.22079	454.29398	25.89526	407.52454	461.05472	17.14198	417.49072	467.30432	0.54882	408.11115	459.82175	1.40264	439.64154	443.52972	28.33524	455.84631	435.66306	24.80177	476.49057	445.90533	16.45190	484.53818	442.88232	9.09360	
1632	13.592	358.58569	381.60754	48.07101	366.02368	389.25308	49.00321	382.12167	404.59610	41.66951	401.85498	424.94125	39.88021	427.24127	446.22281	34.05125	448.91794	471.46848	26.74508	474.68787	495.56113	15.56193	510.46573	520.16333	5.44109	545.66382	538.63812	3.64121	372.92435	411.77557	24.76364	376.20892	426.72745	23.50377	379.10239	431.92032	3.56387	389.90854	392.44357	25.77326	400.11197	386.39413	18.41920	393.26013	383.41806	2.45686	420.60263	453.45123	25.76291	406.15970	461.54807	16.33054	417.49567	467.47833	0.91199	408.04932	459.79364	1.25965	436.47852	441.89410	28.67528	451.99316	432.81577	25.67121	471.67798	444.03339	16.41312	479.67081	440.43060	9.50933	
1633	13.600	356.77496	378.93982	48.48348	364.31787	386.53586	49.51292	380.01001	402.24673	42.04716	398.96762	423.50278	39.97066	424.31604	445.02747	34.30363	446.80319	469.20599	27.07468	472.52371	493.40311	15.88173	507.89590	518.29340	5.49954	543.05457	536.98413	3.59241	369.96851	408.64240	25.91928	371.19205	423.89575	25.53273	370.96500	428.17630	6.08712	388.64426	390.74011	26.07437	399.48483	385.87994	18.73786	393.15863	383.40005	2.60023	418.10602	452.38144	25.66869	405.14105	461.87909	15.60247	417.37607	467.79886	1.56545	407.87143	459.36887	0.89347	433.36493	440.07928	29.12655	447.78525	429.50790	26.78130	466.42090	441.54797	16.61544	473.94736	437.25351	10.10310	
1634	13.608	355.08121	376.18170	48.95819	362.74728	383.80276	50.09885	378.00745	399.77023	42.53766	396.16675	421.92172	40.17337	421.40704	443.67258	34.53579	444.74454	466.70825	27.47426	470.46133	490.96616	16.30852	505.34323	516.25397	5.61707	540.39655	535.26764	3.50245	367.23138	405.41315	27.10341	366.47241	420.59872	27.35774	362.60861	423.78262	9.16755	387.39026	388.90985	26.47398	398.73837	385.20233	19.14569	393.00653	383.37338	2.81775	415.73386	451.15436	25.70526	404.30719	461.98117	15.13393	417.07260	468.09351	2.59110	407.19806	458.10510	0.27641	430.20261	438.02649	29.59537	443.13974	425.78079	28.04968	460.87567	438.20950	17.01017	467.79550	432.91422	11.21977	
1635	13.617	353.39771	373.35068	49.53757	361.19254	380.99704	50.81846	376.08536	397.15091	43.13322	393.44998	420.14569	40.53227	418.52249	442.08627	34.87635	442.72098	463.97647	27.98968	468.47183	488.22504	16.88705	502.80774	514.04956	5.88903	537.68390	533.45001	3.43677	364.75119	402.06378	28.24780	362.18652	416.89154	28.84051	354.82843	418.53116	12.18070	386.11490	386.94659	26.99538	397.82394	384.30124	19.64049	392.85211	383.20871	3.13833	413.42789	449.72043	25.89815	403.55359	461.78018	14.97147	416.68307	468.17661	3.85950	406.63171	456.99658	-0.26477	427.00986	435.80136	30.18403	438.04660	421.80017	29.41677	455.25375	433.85104	17.58995	461.08182	427.47375	12.60958	
1636	13.625	351.76715	370.44141	50.24264	359.67560	378.13370	51.62816	374.20718	394.42319	43.85295	390.82376	418.09430	41.04896	415.74261	440.22668	35.34727	440.67868	461.03375	28.61852	466.51077	485.18396	17.60607	500.26263	511.62512	6.24171	534.85919	531.48181	3.36719	362.44656	398.57043	29.32251	358.15424	413.04086	29.97980	348.08313	412.37708	14.78621	384.79108	384.78616	27.64219	396.74124	383.14047	20.21282	392.62418	382.92123	3.48712	411.14896	448.03009	26.25753	402.81711	461.18069	15.15857	416.35138	467.85629	5.18179	406.11716	456.09756	-0.53028	423.80380	433.30679	30.84072	432.58344	417.72098	30.71136	449.80716	428.15363	18.60023	454.05301	420.91730	14.27742	
1637	13.633	350.15652	367.37921	51.06654	358.14771	375.14264	52.49057	372.38223	391.55029	44.71325	388.21884	415.78381	41.71829	412.97757	438.03110	35.98064	438.56973	457.88812	29.38024	464.54166	481.85745	18.46397	497.72177	508.96622	6.76964	531.92682	529.33282	3.32765	360.27023	394.80374	30.26930	354.34302	408.86630	30.71833	342.58511	405.41565	16.91679	383.37207	382.39960	28.35603	395.45212	381.66135	20.82745	392.39667	382.33630	3.91190	408.80667	446.07779	26.85805	401.98309	460.16461	15.71469	416.07025	467.09662	6.55243	405.76352	455.77948	-0.41114	420.48505	430.56122	31.57401	426.86707	413.65564	31.83257	444.29507	421.49271	19.27764	446.65170	413.56924	15.86254	
1638	13.642	348.57034	364.14807	52.01659	356.52396	371.92935	53.42851	370.56961	388.46445	45.65915	385.67880	413.12537	42.51287	410.13324	435.53278	36.69816	436.36465	454.54526	30.28539	462.52341	478.28333	19.46330	495.12601	506.00452	7.39357	528.87640	526.93933	3.29344	358.09164	390.78278	31.14067	350.63269	404.30283	31.13006	338.31406	397.82654	18.50676	381.84265	379.76016	29.09339	393.94647	379.89035	21.41940	392.01263	381.64597	4.34080	406.39822	443.79114	27.60129	401.06473	458.68506	16.59768	415.65823	466.08273	7.88786	405.73294	456.13239	0.21752	417.15546	427.61038	32.35902	421.10886	409.68967	32.70474	438.60577	414.01672	19.65783	438.78455	405.76611	16.93692	
